# xmcd CD database file
# Generated: Tue Apr 16 23:21:43 2002 by KSCD
# 
# Track frame offsets:
#       150
#       24075
#       82800
#       99450
#       116550
#       138300
#       152400
#       209625
#       228900
#       250200
#       271500
#       291225
#       305925
#
# Disc length: 4432 seconds
#
# Revision: 2
# Processed by: cddbd v1.4PL0 Copyright (c) Steve Scherf et al.
# Submitted via: Kscd 1.3.3
#
DISCID=a6114e0d
DTITLE=Elton John - Austrialia 1986
DYEAR=1900
DGENRE=
TTITLE0=dsfsdfsdsdfsd
TTITLE1=sdfsdfsdfsdfsdfsd
TTITLE2=fsdfsdfsdfsdfs
TTITLE3=dfsdfsdfsdfsdfsdf
TTITLE4=dfsdfsdsdfdfdsfsdfsdfsdf
TTITLE5=sdfsdfsdfsdfsdfsdfsdf
TTITLE6=sdfsdfsdfsdfsd
TTITLE7=fsdfsdfsdfsdf
TTITLE8=sdfsdfsfsdfsd
TTITLE9=sdfsdfdsfsfsdf
TTITLE10=sdfsdfsdfsdfsdf
TTITLE11=sdfsdfsdfsdfsd
TTITLE12=fsdfsdfsdfsdfsdfs
EXTD=
EXTT0=
EXTT1=
EXTT2=
EXTT3=
EXTT4=
EXTT5=
EXTT6=
EXTT7=
EXTT8=
EXTT9=
EXTT10=
EXTT11=
EXTT12=
PLAYORDER=
